<?xml version="1.0"?>
<svg xmlns="http://www.w3.org/2000/svg" xmlns:xlink="http://www.w3.org/1999/xlink" xmlns:svgjs="http://svgjs.com/svgjs" version="1.1" width="55" height="55" x="0" y="0" viewBox="0 0 24 24" style="enable-background:new 0 0 512 512" xml:space="preserve"><g><path xmlns="http://www.w3.org/2000/svg" d="M1.5,6h21a1.5,1.5,0,0,0,0-3H1.5a1.5,1.5,0,0,0,0,3Z" fill="#3a7444" data-original="#3a7444"/><path xmlns="http://www.w3.org/2000/svg" d="M22.5,8H1.5a1.5,1.5,0,0,0,0,3h21a1.5,1.5,0,0,0,0-3Z" fill="#3a7444" data-original="#000000"/><path xmlns="http://www.w3.org/2000/svg" d="M22.5,18H1.5a1.5,1.5,0,0,0,0,3h21a1.5,1.5,0,0,0,0-3Z" fill="#3a7444" data-original="#000000"/><path xmlns="http://www.w3.org/2000/svg" d="M22.5,13H1.5a1.5,1.5,0,0,0,0,3h21a1.5,1.5,0,0,0,0-3Z" fill="#3a7444" data-original="#000000"/></g></svg>
