<svg id="Capa_1" data-name="Capa 1" xmlns="http://www.w3.org/2000/svg" viewBox="0 0 374.39 392.25"><defs><style>.cls-1{fill:#f3f2f2;}.cls-2{fill:#2e3b3f;}.cls-3{fill:#fff;}.cls-4{fill:#45ad48;}.cls-5{fill:#2d3a3f;}</style></defs><path class="cls-1" d="M180,380.43h-8.9c-3.71-1.57-7.71-.39-11.52-1.16s-8.05-.22-11.83-1.78c1.22-2-.88-1.89-1.75-2.37q-9.16-5-18.31-10.1c-8.45-4.66-12.3-6.76-17.4-9.59C81.89,339.67,61.1,319,40.77,307.67c-6.09-3.42-11.78-7.51-17.7-11.24A43.71,43.71,0,0,1,15.92,291c-1.87-1.77-5.31-5-7.27-9.51C6.29,276.1,7.15,271,7.16,269.2c.14-46.3.06-92.61.07-138.91,0-19.09,9-33.47,25.76-43.26,15.64-9.15,31.7-17.64,47.59-26.41,24.77-13.66,49.66-27.11,74.26-41C175.34,7.94,195.31,7.8,216,19.43,252.46,40,289.27,60,325.94,80.26c6.42,3.54,13,6.83,18.87,11.25a48.12,48.12,0,0,1,14.75,18.63c.69,1.5-.08,1.26.19,3.64.83,7.34,4,10.86,3.07,11.76-1.34,1.29-7.21-6.46-14-5.79-5,.5-6.43,5.27-12.26,11.24-7.09,7.25-10.71,6-27.91,15.66-13.2,7.39-11.17,8.17-20.43,12.93-13.34,6.87-17.26,5.09-33.36,10.9C238,176.57,227.24,184,218.14,190.22c-17.73,12.16-21.26,19-22.47,24.51a27.76,27.76,0,0,0,.68,13.62c11.78,44.66-9.42,124-6.81,141.62a9.2,9.2,0,0,1-1,6.46C186.6,379.34,182.74,380.17,180,380.43Z"/><path class="cls-2" d="M182.5,391.9c-2.87-10.7-1.56-21.64-1.6-32.47-.15-39.24,0-78.48-.1-117.72-.09-23.7,10.11-41.18,30.57-53q59.69-34.35,119.3-68.85a60.05,60.05,0,0,1,9.61-4.76c6.59-2.35,13.06-1.75,19.86,2.71a48.15,48.15,0,0,0-9.37-16.76,52.13,52.13,0,0,0-14.12-11.55q-61-35.22-122.08-70.42C196.84,8.93,178.92,9,161.22,19.19Q100.49,54.13,39.87,89.27c-17.69,10.24-26.78,25.62-26.79,46.15,0,29.91-8.66,131.05-.05,138.8l5.25,4.7h0l5.22,13.17c-6.29-6.43-10.56-8.77-13.39-9.65a10.67,10.67,0,0,1-1.59-.6c-1-.49-4.46-2.36-6.81-8.9a28.68,28.68,0,0,1-1.7-10c.46-13.61,1.1-110.38,1-123.56a89.62,89.62,0,0,1,1.31-15.07C5.82,103.78,17.1,88.83,35,78.56Q93.71,45,152.14,11C163,4.66,174.43.12,187.11,0a59.3,59.3,0,0,1,28.46,6.64c16.72,8.78,32.83,18.65,49.2,28.05,24.78,14.24,49.38,28.81,74.33,42.76,18.83,10.54,30.68,25.82,34.7,47.08a30.45,30.45,0,0,1,.57,5.95c0,46,.09,91.9,0,137.83-.92,5.06-3.68,9.4-6,13.83A205.28,205.28,0,0,1,334.88,329c-13.23,14-28.78,25.1-45.92,33.93-4.61,2.37-9.08,5-13.52,7.68-18.23,11-38.29,16.19-59.1,19.12-4.86.69-9.7,1.6-14.65,1.34-1.87.26-3.91-.64-5.62.8Z"/><path class="cls-3" d="M243.84,226.33c0,3.7.09,6.73,0,9.75-.1,2.37.05,3.61,3.16,2.86,2.91-.7,6.07-.36,9.11-.5,1.74-.08,2,.66,1.41,2.15-1.44,3.56-2.93,7.11-4.2,10.72-.68,1.92-2,1.74-3.48,1.62a19,19,0,0,0-13.5,3.68,13.83,13.83,0,0,0-5.51,8.48c-1,5.25,1.52,8.93,6.8,9.55,2.9.34,5.83.45,8.74.68,7.92.65,12.1,4.51,12.93,12.4,1.59,15.06-1.34,28.58-14.11,38.36-1.65,1.26-1.29,2.76-1.31,4.28-.1,9.94-.13,9.86-9,14.49-2.46,1.28-2.61.35-2.55-1.71.08-2.79,0-5.58,0-8.37,0-1.65-.52-2-2.14-1.62-3.22.78-6.49,1.31-9.74,2-2.2.44-3.15-.2-2.72-2.65.64-3.65,1.19-7.34,1.54-11,.2-2.13,1.46-2,3-2.18,5.57-.49,11.08-1.3,16.09-4,4.15-2.24,7.1-5.47,8.18-10.2,1.35-6-1.82-10.52-8-11.26-2-.24-4-.37-5.95-.6-9.28-1.08-14.14-6.42-13.87-15.67.36-12.08,2.48-23.56,12.49-31.89,1.37-1.14,1.28-2.67,1-4-1.3-6.8,1.42-11.07,7.83-13.28A30.51,30.51,0,0,0,243.84,226.33Z"/><path class="cls-4" d="M277.3,331.06c0-3.63,0-7,0-10.41,0-1.26.85-1.86,1.75-2.44q15.84-10.24,31.69-20.47c.18-.11.5,0,1.08,0,0,3.4,0,6.81,0,10.22,0,1.28-.7,1.85-1.63,2.45q-15.72,10.07-31.42,20.16A8.72,8.72,0,0,1,277.3,331.06Z"/><path class="cls-5" d="M182.47,392c-6.9.24-13.74.63-20.67-.5-10.19-1.66-18.21-7.58-26.32-13.1-5.83-4-11.62-8.05-17.36-12.19-8.79-6.33-17.68-12.51-26.58-18.68-5.71-4-11.56-7.72-17.27-11.69C65.8,329.93,57.51,323.77,49,318c-5-3.37-9.88-7-15-10.31-10.66-6.94-20.92-14.28-28-25.28a19.28,19.28,0,0,1-2.44-5.12H15.85c2.45.88,3.65,3.17,5.36,4.88,5.89,5.88,13,10.06,19.7,14.85,10.66,7.64,21.48,15.05,32.29,22.45s21.26,14.93,32,22.19c8.73,5.89,17.28,12.06,26,18,7.32,5,14.24,10.63,22,14.93a35.38,35.38,0,0,0,14.33,4,64.37,64.37,0,0,0,12.42-.38,1.51,1.51,0,0,1,1.68.62c.46,1.47-.75,3.26.84,4.52Z"/></svg>